<?xml version="1.0" encoding="UTF-8"?>
<svg width="64px" height="64px" viewBox="0 0 64 64" version="1.1" xmlns="http://www.w3.org/2000/svg" xmlns:xlink="http://www.w3.org/1999/xlink">
    <!-- Generator: Sketch 51.2 (57519) - http://www.bohemiancoding.com/sketch -->
    <title>IYR</title>
    <desc>Created with Sketch.</desc>
    <defs></defs>
    <g id="IYR" stroke="none" stroke-width="1" fill="none" fill-rule="evenodd">
        <g id="ic_1">
            <rect id="Rectangle-112-Copy-6" fill="#FFFFFF" x="0" y="0" width="64" height="64" rx="32"></rect>
            <path d="M24.0589922,9.42009111 C16.3183975,12.2779257 11.2138216,17.6500318 8.83099844,25.5310178 C7.83674491,28.8195794 7.6629734,32.192609 8.19059781,35.5919975 C8.24297966,35.9287713 8.19650704,36.0540755 7.81180595,36.0513797 C5.39392801,36.0343064 2.97564945,36.0345061 0.557671362,36.0515794 C0.191599374,36.0541754 0.125596244,35.912297 0.0894397496,35.5949928 C0.0382597809,35.1446964 -0.0101158059,29.6534764 0.0018028169,29.5459445 C0.0782222222,28.8525279 0.125195618,28.1550178 0.229158059,27.4658945 C1.13847887,21.4425061 3.51108607,16.0618134 7.48880125,11.4308493 C12.8595931,5.1779195 19.6518059,1.48189454 27.8490141,0.368833697 C28.2706062,0.311523245 29.6376088,0.221530525 31.9500219,0.0988555382 C31.9499218,2.75580406 31.9499218,5.41285242 31.9500219,8.06990078 C29.2507042,8.12002246 26.5974585,8.48295538 24.0589922,9.42009111 Z" id="Fill-3" fill="#0082EB"></path>
            <path d="M31.9499218,0.0988555382 C34.2624017,0.22239584 35.6461304,0.313986063 36.101108,0.373626209 C41.9415336,1.13942964 47.1646948,3.35317067 51.7959311,6.97071825 C52.2157872,7.29860593 52.6219218,7.64386646 53.0274554,7.97544836 C52.9839875,8.14897722 52.8608951,8.08318003 52.7798685,8.08318003 C45.9029233,8.08657473 39.0259781,8.08637504 32.149133,8.08557629 C32.0827293,8.08557629 32.0163255,8.0753922 31.9500219,8.06990078 C31.9499218,5.41285242 31.9499218,2.75580406 31.9499218,0.0988555382 Z" id="Fill-7" fill="#D11242"></path>
            <path d="M64,34.2454515 C63.8006886,34.6912549 63.8577778,35.1752986 63.8059969,35.6411707 C63.7711424,35.9540817 63.6718873,36.0525279 63.3473803,36.0506309 C60.9142786,36.0361535 58.4809765,36.0405466 56.047975,36.0461379 C55.8013897,36.046737 55.6412394,36.0437417 55.6942222,35.7105622 C56.0324507,33.5831863 56.0887387,31.4478228 55.8161127,29.3086652 C55.767036,28.9236668 56.0431674,29.0597541 56.1995117,29.0588555 C57.7827856,29.0500693 59.3659593,29.053464 60.9492332,29.053464 C61.7325571,29.053464 62.5167825,29.0772268 63.2987042,29.0440786 C63.73118,29.0258072 63.9574335,29.122556 63.9053521,29.5986122 C63.8929327,29.7125342 63.8410516,29.8695888 64,29.9521598 L64,34.2454515 Z" id="Fill-9" fill="#D11242"></path>
            <path d="M12.0610354,57.0344037 L51.8126473,57.0344037 C41.1283531,66.0237579 23.6281089,66.5729997 12.0610354,57.0344037" id="Fill-11" fill="#D11242"></path>
            <path d="M15.9872801,50.0209023 L15.507831,50.0209023 C12.3061283,50.0209023 9.10432551,50.0158103 5.902723,50.0283906 C5.56499531,50.0296886 5.3736964,49.9278477 5.18680438,49.6406964 C3.93154304,47.7129086 2.87118623,45.6877729 2.04589671,43.5415264 C1.98840689,43.3920599 1.87583099,43.2512799 1.9269108,43.0316231 L3.35714554,43.0316231 C5.64181534,43.0316231 7.92638498,43.0333204 10.2108545,43.0290271 C10.4367074,43.0286278 10.5999624,43.0439039 10.7303662,43.28962 C12.0526322,45.7808275 13.7717183,47.9671114 15.8697966,49.8570583 C15.9018466,49.8860131 15.9217778,49.9284468 15.9872801,50.0209023" id="Fill-13" fill="#D11242"></path>
            <path d="M47.8957371,49.978878 C50.0799499,48.0236331 51.823975,45.8155832 53.1709797,43.2988156 C53.2651268,43.1228905 53.3559687,43.0249435 53.5815211,43.0257423 C56.3495462,43.0358265 59.1176714,43.03363 61.8857966,43.0359264 C61.916144,43.0360262 61.9465915,43.054697 62.0145978,43.0770621 C61.6913928,44.0701105 61.2592175,45.016931 60.8074116,45.9539669 C60.17923,47.2570309 59.4543975,48.5062789 58.6586541,49.7153897 C58.5322567,49.9074895 58.4170767,50.0284006 58.1545665,50.0276019 C54.8028294,50.0173179 51.4510923,50.0207126 48.0993552,50.0193148 C48.0547856,50.0193148 48.0103161,50.0022415 47.8957371,49.978878" id="Fill-15" fill="#D11242"></path>
            <path d="M62.3614998,22.0645841 L59.9552401,22.0645841 C58.035841,22.0645841 56.1163418,22.0637853 54.1968426,22.0657822 C53.9796031,22.0659819 53.8015249,22.0803594 53.6767299,21.8145747 C52.5277346,19.368297 50.9874279,17.1901005 49.096974,15.2566215 C49.0648238,15.2239725 49.0433903,15.1809398 49.0134435,15.1372081 C49.1300257,15.0205903 49.2696438,15.0786995 49.3914341,15.0784998 C52.4791587,15.0744062 55.5668833,15.0764031 58.6546078,15.0732081 C58.910107,15.0729086 59.1216376,15.0723095 59.2849928,15.3455825 C60.5259318,17.4209398 61.5780757,19.581464 62.3275468,21.8830677 C62.3424701,21.9286964 62.3457753,21.9781192 62.3614998,22.0645841" id="Fill-17" fill="#D11242"></path>
        </g>
        <g id="Group-5" transform="translate(17.000000, 17.000000)" fill="#2381E8" fill-rule="nonzero">
            <rect id="Rectangle-path" x="4.41176471" y="12.5197964" width="6.17647059" height="13.9507919"></rect>
            <rect id="Rectangle-path" x="19.4117647" y="12.5197964" width="6.17647059" height="13.0684389"></rect>
            <rect id="Rectangle-path-Copy" x="8.82352941" y="8.82352941" width="13.2352941" height="7.94117647"></rect>
            <polygon id="Shape" points="29.3294118 13.1363119 14.9294118 0.42138009 0.541411765 13.1363119"></polygon>
        </g>
    </g>
</svg>