<svg xmlns="http://www.w3.org/2000/svg" width="56" height="56"><g fill="none" fill-rule="evenodd"><circle cx="28" cy="28" r="28" fill="#29B672"/><g fill="#FFF"><path d="M17.71 32.87v-8.74H16.4a1 1 0 0 0-1 1v13.82l2.25-1.98h16.02a1 1 0 0 0 1-1v-1.1H19.71a2 2 0 0 1-2-2z" opacity=".7"/><path d="M20.85 18.2H39.6a1 1 0 0 1 1 1v16.79l-3.85-2.96h-15.9a1 1 0 0 1-1-1V19.2a1 1 0 0 1 1-1zm4.93 8.9a1.48 1.48 0 1 0 0-2.97 1.48 1.48 0 0 0 0 2.96zm4.44 0a1.48 1.48 0 1 0 0-2.97 1.48 1.48 0 0 0 0 2.96zm4.45 0a1.48 1.48 0 1 0 0-2.97 1.48 1.48 0 0 0 0 2.96z"/></g><g transform="translate(40 2)"><circle cx="8" cy="8" r="8" fill="#8ED4B2"/><path fill="#FFF" d="M6.87 8.71l3.9-3.9c.2-.19.51-.19.7 0l.71.72c.2.19.2.5 0 .7L8.02 10.4a.5.5 0 0 1-.08.1l-.7.7a.5.5 0 0 1-.71 0L3.7 8.37a.5.5 0 0 1 0-.7l.7-.71c.2-.2.52-.2.71 0L6.87 8.7z"/></g></g></svg>