<svg xmlns="http://www.w3.org/2000/svg" width="56" height="56"><g fill="none" fill-rule="evenodd"><circle cx="28" cy="28" r="28" fill="#29B672"/><g fill-rule="nonzero" transform="translate(15 17)"><rect width="26" height="2" y="2" fill="#AAE2C7" rx=".5"/><rect width="6" height="6" fill="#FFF" rx="1.5"/><rect width="26" height="2" y="10" fill="#AAE2C7" rx=".5"/><rect width="6" height="6" x="10" y="8" fill="#FFF" rx="1.5"/><rect width="26" height="2" y="18" fill="#AAE2C7" rx=".5"/><rect width="6" height="6" x="20" y="16" fill="#FFF" rx="1.5"/></g><g transform="translate(40 2)"><circle cx="8" cy="8" r="8" fill="#8ED4B2"/><path fill="#FFF" d="M6.87 8.71l3.9-3.9c.2-.19.51-.19.7 0l.71.72c.2.19.2.5 0 .7L8.02 10.4a.5.5 0 0 1-.08.1l-.7.7a.5.5 0 0 1-.71 0L3.7 8.37a.5.5 0 0 1 0-.7l.7-.71c.2-.2.52-.2.71 0L6.87 8.7z"/></g></g></svg>