<svg xmlns="http://www.w3.org/2000/svg" width="56" height="56"><g fill="none" fill-rule="evenodd"><circle cx="28" cy="28" r="28" fill="#29B672"/><g fill="#FFF"><path d="M15.4 17.49c0-1.16.93-2.09 2.09-2.09H38.5c1.16 0 2.09.93 2.09 2.09v7.04c0 1.14-.93 2.07-2.07 2.07v-9.11H17.55v9.11a2.15 2.15 0 0 1-2.15-2.15v-6.96z" opacity=".6"/><path d="M19.6 19.6h16.8v20a1 1 0 0 1-1 1H20.6a1 1 0 0 1-1-1v-20zm10.1 9.25c-.48-.28-.99-.48-1.49-.7a3.3 3.3 0 0 1-.82-.47c-.48-.4-.39-1.05.18-1.31.16-.07.33-.1.5-.1.66-.05 1.28.08 1.88.38.3.14.4.1.5-.22l.28-1.02c.07-.23-.01-.38-.22-.48-.38-.18-.77-.3-1.19-.37-.53-.08-.53-.09-.54-.65 0-.78 0-.78-.76-.78h-.33c-.36 0-.42.07-.43.44v.5c0 .5 0 .5-.46.66-1.1.42-1.8 1.2-1.86 2.45-.07 1.1.49 1.85 1.36 2.4.54.33 1.14.53 1.71.8.23.1.44.21.63.37.55.47.45 1.26-.2 1.55-.36.16-.72.2-1.1.15a4.77 4.77 0 0 1-1.68-.52c-.3-.16-.4-.12-.5.23-.1.3-.17.6-.25.9-.11.4-.07.5.3.7.48.23 1 .36 1.51.44.4.07.42.09.43.52v.6c0 .25.12.4.37.4h.84c.23 0 .35-.14.35-.38v-.81c0-.28.1-.42.36-.5a2.82 2.82 0 0 0 .62-5.19z"/></g><g transform="translate(40 2)"><circle cx="8" cy="8" r="8" fill="#8ED4B2"/><path fill="#FFF" d="M6.87 8.71l3.9-3.9c.2-.19.51-.19.7 0l.71.72c.2.19.2.5 0 .7L8.02 10.4a.5.5 0 0 1-.08.1l-.7.7a.5.5 0 0 1-.71 0L3.7 8.37a.5.5 0 0 1 0-.7l.7-.71c.2-.2.52-.2.71 0L6.87 8.7z"/></g></g></svg>