<svg xmlns="http://www.w3.org/2000/svg" width="56" height="56"><g fill="none" fill-rule="evenodd"><circle cx="28" cy="28" r="28" fill="#29B672"/><g fill="#FFF"><path d="M27 38.2v-4a8 8 0 0 1-7.67-8v-7a1 1 0 0 1 1-1h15.34a1 1 0 0 1 1 1v7a8 8 0 0 1-7.68 8v4h2.34c1.48 0 2.67 1.2 2.67 2.67H22c0-1.48 1.2-2.67 2.67-2.67h2.32z"/><path d="M17.38 27.53v-8h-1.67a1 1 0 0 0-1 1v4.34c0 1.47 1.2 2.66 2.67 2.66zm21.29 0v-8h1.66a1 1 0 0 1 1 1v4.34c0 1.47-1.2 2.66-2.66 2.66z" opacity=".7"/></g><g transform="translate(40 2)"><circle cx="8" cy="8" r="8" fill="#8ED4B2"/><path fill="#FFF" d="M6.87 8.71l3.9-3.9c.2-.19.51-.19.7 0l.71.72c.2.19.2.5 0 .7L8.02 10.4a.5.5 0 0 1-.08.1l-.7.7a.5.5 0 0 1-.71 0L3.7 8.37a.5.5 0 0 1 0-.7l.7-.71c.2-.2.52-.2.71 0L6.87 8.7z"/></g></g></svg>