<svg width="145" height="38" viewBox="0 0 145 38" fill="none" xmlns="http://www.w3.org/2000/svg"><path d="M0 12.814H7.18349V15.7302C8.20336 14.493 9.26758 13.6535 10.2875 13.1233C11.3517 12.593 12.5933 12.3721 14.1009 12.3721C15.6972 12.3721 16.9832 12.6372 17.9144 13.2116C18.8456 13.786 19.5994 14.6256 20.1758 15.7302C21.3731 14.4047 22.4817 13.5209 23.4572 13.0791C24.4327 12.593 25.6743 12.3721 27.1376 12.3721C29.3104 12.3721 30.9511 12.9907 32.1927 14.2721C33.3899 15.5535 34.0107 17.5419 34.0107 20.2372V32.786H26.2951V21.4302C26.2951 20.5465 26.1177 19.8395 25.763 19.3977C25.2309 18.6907 24.6101 18.3814 23.8563 18.3814C22.9694 18.3814 22.2156 18.6907 21.6835 19.3535C21.1514 20.0163 20.841 21.0326 20.841 22.4907V32.786H13.1254V21.7837C13.1254 20.9 13.081 20.3256 12.9924 20.0163C12.815 19.5302 12.5489 19.1326 12.1498 18.8233C11.7508 18.514 11.263 18.3814 10.7309 18.3814C9.84404 18.3814 9.13456 18.7349 8.5581 19.3977C7.98165 20.0605 7.7156 21.1651 7.7156 22.6674V32.8744H0V12.814Z" fill="#1A2B35"/><path d="M36.1392 22.8442C36.1392 19.7954 37.159 17.2767 39.2431 15.3326C41.3272 13.3442 44.0765 12.3721 47.6239 12.3721C51.6147 12.3721 54.6743 13.5209 56.7141 15.8628C58.3548 17.7186 59.1973 20.0163 59.1973 22.7558C59.1973 25.8488 58.1774 28.3233 56.1376 30.3116C54.0979 32.2558 51.26 33.2721 47.6682 33.2721C44.4312 33.2721 41.8593 32.4767 39.8639 30.8419C37.3808 28.7651 36.1392 26.114 36.1392 22.8442ZM43.8548 22.8442C43.8548 24.6116 44.2095 25.9372 44.919 26.7767C45.6285 27.6163 46.5596 28.0581 47.6239 28.0581C48.7324 28.0581 49.6193 27.6163 50.3288 26.7767C51.0382 25.9372 51.393 24.5674 51.393 22.7558C51.393 21.0326 51.0382 19.7512 50.3288 18.9116C49.6193 18.0721 48.7324 17.6302 47.6682 17.6302C46.5596 17.6302 45.6285 18.0721 44.8746 18.9116C44.2095 19.7954 43.8548 21.0767 43.8548 22.8442Z" fill="#1A2B35"/><path d="M61.3701 12.814H68.5093V16.0837C69.5735 14.7581 70.682 13.786 71.7463 13.2558C72.8548 12.6814 74.1851 12.4163 75.7371 12.4163C77.8655 12.4163 79.5062 13.0349 80.7478 14.3163C81.9451 15.5977 82.5658 17.5419 82.5658 20.1488V32.8302H74.8502V21.8279C74.8502 20.5907 74.6285 19.707 74.1408 19.1767C73.6973 18.6465 73.0322 18.3814 72.1897 18.3814C71.2585 18.3814 70.5047 18.7349 69.9282 19.4419C69.3518 20.1488 69.0414 21.386 69.0414 23.2419V32.8302H61.3701V12.814Z" fill="#1A2B35"/><path d="M94.1834 12.814H97.8639V18.4256H94.1834V32.786H86.4678V18.4256H83.5856V12.814H86.4678V11.9302C86.4678 11.1349 86.5565 10.207 86.7339 9.23489C86.9113 8.26279 87.2217 7.46744 87.7094 6.84884C88.1972 6.23023 88.8623 5.74419 89.7492 5.34651C90.636 4.94884 91.922 4.77209 93.607 4.77209C94.9373 4.77209 96.8883 4.94884 99.4602 5.25814L98.6177 9.89768C97.6865 9.76512 96.977 9.67675 96.4006 9.67675C95.6911 9.67675 95.2033 9.8093 94.8929 10.0302C94.5825 10.2512 94.3608 10.6488 94.2721 11.1349C94.1834 11.3558 94.1834 11.9302 94.1834 12.814Z" fill="#00AA80"/><path d="M120.745 24.7H105.358C105.491 25.9372 105.846 26.8651 106.378 27.4395C107.131 28.3233 108.107 28.7209 109.304 28.7209C110.058 28.7209 110.768 28.5442 111.477 28.1465C111.876 27.9256 112.32 27.4837 112.807 26.8651L120.39 27.5721C119.237 29.5605 117.818 31.0186 116.222 31.9023C114.581 32.786 112.231 33.2279 109.171 33.2279C106.511 33.2279 104.427 32.8744 102.919 32.1233C101.411 31.3721 100.125 30.1791 99.1499 28.5884C98.13 26.9535 97.6422 25.0535 97.6422 22.8442C97.6422 19.707 98.6621 17.1884 100.658 15.2884C102.653 13.3884 105.446 12.3721 108.95 12.3721C111.832 12.3721 114.093 12.814 115.734 13.6535C117.375 14.5372 118.661 15.7744 119.547 17.4093C120.434 19.0442 120.833 21.2093 120.833 23.8163V24.7H120.745ZM112.94 21.0326C112.807 19.5744 112.408 18.514 111.743 17.8512C111.078 17.1884 110.235 16.8791 109.171 16.8791C107.93 16.8791 106.954 17.3651 106.245 18.3372C105.801 18.9558 105.491 19.8395 105.358 21.0326H112.94Z" fill="#00AA80"/><path d="M120.035 12.814H129.17L132.318 18.3814L136.043 12.814H144.512L137.683 22.3581L145 32.786H136.043L132.318 26.3791L127.972 32.786H119.68L126.953 22.3581L120.035 12.814Z" fill="#00AA80"/></svg>
